<svg width="12" height="11" viewBox="0 0 12 11" fill="none" xmlns="http://www.w3.org/2000/svg">
<g id="svgviewer-output (7) 1" clip-path="url(#clip0_414_376)">
<path id="Vector" d="M5.8004 0.229187C2.994 0.229187 0.712769 2.51041 0.712769 5.31682C0.712769 8.12322 2.994 10.4044 5.8004 10.4044C8.6068 10.4044 10.888 8.12322 10.888 5.31682C10.888 2.51041 8.6068 0.229187 5.8004 0.229187ZM7.33216 2.05089L5.9481 1.34518V0.978655C6.94922 1.01148 7.90657 1.39442 8.66151 2.05089H7.33216ZM8.97333 2.35177C9.42738 2.83865 9.75562 3.41306 9.95256 4.04764L9.17574 5.40435L8.03239 5.22929L6.99298 3.43494L7.40874 2.3463C7.41422 2.35177 8.97333 2.35177 8.97333 2.35177ZM6.65928 3.63735L7.66039 5.37699L6.77963 6.89781H4.82117L3.9404 5.37152L4.94152 3.63188H6.65928V3.63735ZM5.65269 1.34518L4.26864 2.05089H2.93382C3.68876 1.38895 4.64611 1.01148 5.64722 0.978655V1.34518H5.65269ZM4.18658 2.35177L4.60234 3.44041L3.56841 5.22929L2.43053 5.40435L1.64277 4.0367C1.83971 3.40759 2.17341 2.83318 2.63294 2.35177H4.18658ZM2.26094 5.70523L2.33206 7.13851L1.96553 7.35734C1.62635 6.72822 1.4513 6.02799 1.4513 5.31135C1.4513 5.02688 1.47865 4.73147 1.5443 4.45247L2.26094 5.70523ZM2.46335 7.41204L3.71611 8.21075L4.4054 9.43068C3.45899 9.11339 2.64388 8.46786 2.11323 7.61445L2.46335 7.41204ZM4.06076 8.22716L4.82117 7.29169H6.77416L7.53457 8.22716L6.77416 9.5401C6.4514 9.61668 6.12863 9.65498 5.79493 9.66045C5.46122 9.66045 5.13846 9.62215 4.8157 9.5401L4.06076 8.22716ZM7.19539 9.41974L7.88468 8.21622L9.13744 7.41751L9.48209 7.61993C8.95145 8.46239 8.1418 9.10245 7.19539 9.41974ZM9.26327 7.13851L9.33438 5.70523L10.0565 4.45794C10.1112 4.73694 10.144 5.02141 10.1495 5.31135C10.1495 6.02799 9.97444 6.72822 9.63527 7.35734L9.26327 7.13851Z" fill="#22B14C"/>
</g>
<defs>
<clipPath id="clip0_414_376">
<rect width="10.6129" height="10.6129" fill="white" transform="translate(0.493774 0.0322571)"/>
</clipPath>
</defs>
</svg>
